<svg width="89" height="50" viewBox="0 0 89 50" fill="none" xmlns="http://www.w3.org/2000/svg">
<g filter="url(#filter0_d)">
<g filter="url(#filter1_d)">
<path d="M58.3829 5.82498C58.5704 5.99443 57.9704 6.17928 57.7642 6.02523C56.4142 5.10096 57.3142 5.87119 56.1892 4.40776C55.758 3.8532 54.5018 2.77488 53.3018 2.35896C52.9643 2.23572 51.1831 1.51171 50.5081 2.68245C49.4769 4.48478 49.8144 6.76465 50.4894 8.9829C50.5081 9.01371 50.4894 9.05993 50.4706 9.09074C50.4894 9.09074 50.4894 9.09074 50.5081 9.09074C50.6769 9.05993 50.3019 9.47585 50.2644 9.52206C50.0769 9.69151 49.7956 9.96879 49.5144 10.015C47.5457 10.3231 45.4645 10.3539 43.477 10.2923C43.2895 10.2923 43.6645 9.92258 43.7208 9.87637C43.8895 9.72232 44.1895 9.39883 44.4708 9.38342C45.9895 9.291 47.5269 9.33721 49.0456 9.24478C48.6894 7.96621 48.4269 6.67223 48.4082 5.36284C48.3707 4.42316 48.4269 3.40646 48.8394 2.513C49.2519 1.60413 50.4519 0.402581 51.7456 0.402581C53.583 0.417986 56.2267 3.79158 58.3829 5.82498ZM50.2644 10.1382C49.2894 10.7236 47.9769 10.9085 46.7957 10.9855C45.5395 11.0625 44.302 11.0009 43.0458 11.0163C42.7833 11.0163 42.4645 11.3552 42.2958 11.5092C42.2396 11.5555 41.8646 11.9252 42.0521 11.9252C44.7332 12.0638 47.5832 12.1562 49.8519 10.8006C50.0956 10.662 50.5456 10.3539 50.6206 10.1074C50.6956 9.84556 50.3956 10.0612 50.2644 10.1382ZM78.7637 1.85061C78.4262 0.972549 77.5637 0.0328725 76.345 0.0020634C75.145 -0.0441502 74.0013 0.695267 73.1201 1.28064C72.4826 1.71197 71.8826 2.18951 71.3201 2.68245C70.7951 3.12918 70.5139 3.40647 70.0077 3.80698C69.9139 3.88401 69.3139 4.34614 69.4639 4.46938C69.6139 4.59261 70.2139 4.06886 70.2702 4.02265C71.0576 3.39106 71.6576 2.77488 72.4451 2.18951C73.1763 1.63494 74.1138 1.03417 75.1825 1.09579C76.3075 1.1574 77.095 2.08167 77.4137 2.88271C77.8075 3.8686 77.695 4.94692 77.5075 5.94821C77.3012 7.02653 76.9262 8.07404 76.6075 9.15235C76.57 9.3218 77.1137 8.9521 77.1512 8.93669C77.3762 8.76724 77.6762 8.55158 77.77 8.30511C78.5762 6.33333 79.5699 3.94562 78.7637 1.85061ZM78.5762 9.6299C80.0574 10.015 82.1761 10.3385 83.7511 10.2153C83.8636 10.1999 84.7261 9.83015 84.8573 9.70692C84.8948 9.6607 80.2449 9.04452 79.0637 8.84426C78.895 8.81345 78.445 9.59909 78.5762 9.6299ZM84.9698 11.0625C83.0574 11.2628 79.9074 11.1395 78.6887 10.1999C78.6137 10.1382 77.6012 11.0625 77.845 11.1395C79.7762 11.8327 82.3261 11.956 84.2761 11.6479C84.5573 11.6171 85.1386 11.0471 84.9698 11.0625Z" fill="#67ABBA"/>
</g>
<path d="M14.4062 37.3438V26.4453L6.01562 13.4375C5.28125 12.2656 4.75781 11.3516 4.44531 10.6953C4.14844 10.0391 4 9.46875 4 8.98438C4 8.1875 4.30469 7.5 4.91406 6.92188C5.53906 6.34375 6.30469 6.05469 7.21094 6.05469C8.16406 6.05469 8.88281 6.32812 9.36719 6.875C9.86719 7.40625 10.6094 8.47656 11.5938 10.0859L18.0156 20.5156L24.5078 10.0859C24.8984 9.44531 25.2266 8.90625 25.4922 8.46875C25.7578 8.03125 26.0469 7.625 26.3594 7.25C26.6875 6.85938 27.0469 6.5625 27.4375 6.35938C27.8281 6.15625 28.3047 6.05469 28.8672 6.05469C29.7422 6.05469 30.4688 6.34375 31.0469 6.92188C31.6406 7.48438 31.9375 8.14062 31.9375 8.89062C31.9375 9.5 31.7891 10.1094 31.4922 10.7188C31.1953 11.3281 30.6875 12.1719 29.9688 13.25L21.3672 26.4453V37.3438C21.3672 38.7656 21.0391 39.8281 20.3828 40.5312C19.7266 41.2344 18.8906 41.5859 17.875 41.5859C16.8438 41.5859 16.0078 41.2422 15.3672 40.5547C14.7266 39.8516 14.4062 38.7812 14.4062 37.3438Z" fill="#67ABBA"/>
<path d="M80.125 27.0312V33.6172C80.125 34.4922 80.0391 35.1953 79.8672 35.7266C79.6953 36.2422 79.375 36.7109 78.9062 37.1328C78.4531 37.5547 77.8672 37.9609 77.1484 38.3516C75.0703 39.4766 73.0703 40.2969 71.1484 40.8125C69.2266 41.3281 67.1328 41.5859 64.8672 41.5859C62.2266 41.5859 59.8203 41.1797 57.6484 40.3672C55.4766 39.5547 53.625 38.375 52.0938 36.8281C50.5625 35.2812 49.3828 33.4062 48.5547 31.2031C47.7422 29 47.3359 26.5391 47.3359 23.8203C47.3359 21.1484 47.7344 18.7031 48.5312 16.4844C49.3281 14.2656 50.5 12.3828 52.0469 10.8359C53.5938 9.28906 55.4766 8.10938 57.6953 7.29688C59.9141 6.46875 62.4297 6.05469 65.2422 6.05469C67.5547 6.05469 69.6016 6.36719 71.3828 6.99219C73.1641 7.60156 74.6094 8.375 75.7188 9.3125C76.8281 10.25 77.6641 11.2422 78.2266 12.2891C78.7891 13.3359 79.0703 14.2656 79.0703 15.0781C79.0703 15.9531 78.7422 16.7031 78.0859 17.3281C77.4453 17.9375 76.6719 18.2422 75.7656 18.2422C75.2656 18.2422 74.7812 18.125 74.3125 17.8906C73.8594 17.6562 73.4766 17.3281 73.1641 16.9062C72.3047 15.5625 71.5781 14.5469 70.9844 13.8594C70.3906 13.1719 69.5859 12.5938 68.5703 12.125C67.5703 11.6562 66.2891 11.4219 64.7266 11.4219C63.1172 11.4219 61.6797 11.7031 60.4141 12.2656C59.1484 12.8125 58.0625 13.6172 57.1562 14.6797C56.2656 15.7266 55.5781 17.0156 55.0938 18.5469C54.625 20.0781 54.3906 21.7734 54.3906 23.6328C54.3906 27.6641 55.3125 30.7656 57.1562 32.9375C59.0156 35.1094 61.6016 36.1953 64.9141 36.1953C66.5234 36.1953 68.0312 35.9844 69.4375 35.5625C70.8594 35.1406 72.2969 34.5391 73.75 33.7578V28.1797H68.3594C67.0625 28.1797 66.0781 27.9844 65.4062 27.5938C64.75 27.2031 64.4219 26.5391 64.4219 25.6016C64.4219 24.8359 64.6953 24.2031 65.2422 23.7031C65.8047 23.2031 66.5625 22.9531 67.5156 22.9531H75.4141C76.3828 22.9531 77.2031 23.0391 77.875 23.2109C78.5469 23.3828 79.0859 23.7656 79.4922 24.3594C79.9141 24.9531 80.125 25.8438 80.125 27.0312Z" fill="#67ABBA"/>
</g>
<defs>
<filter id="filter0_d" x="0" y="0" width="89" height="49.5859" filterUnits="userSpaceOnUse" color-interpolation-filters="sRGB">
<feFlood flood-opacity="0" result="BackgroundImageFix"/>
<feColorMatrix in="SourceAlpha" type="matrix" values="0 0 0 0 0 0 0 0 0 0 0 0 0 0 0 0 0 0 127 0"/>
<feOffset dy="4"/>
<feGaussianBlur stdDeviation="2"/>
<feColorMatrix type="matrix" values="0 0 0 0 0 0 0 0 0 0 0 0 0 0 0 0 0 0 0.25 0"/>
<feBlend mode="normal" in2="BackgroundImageFix" result="effect1_dropShadow"/>
<feBlend mode="normal" in="SourceGraphic" in2="effect1_dropShadow" result="shape"/>
</filter>
<filter id="filter1_d" x="38" y="0" width="51" height="20" filterUnits="userSpaceOnUse" color-interpolation-filters="sRGB">
<feFlood flood-opacity="0" result="BackgroundImageFix"/>
<feColorMatrix in="SourceAlpha" type="matrix" values="0 0 0 0 0 0 0 0 0 0 0 0 0 0 0 0 0 0 127 0"/>
<feOffset dy="4"/>
<feGaussianBlur stdDeviation="2"/>
<feColorMatrix type="matrix" values="0 0 0 0 0 0 0 0 0 0 0 0 0 0 0 0 0 0 0.25 0"/>
<feBlend mode="normal" in2="BackgroundImageFix" result="effect1_dropShadow"/>
<feBlend mode="normal" in="SourceGraphic" in2="effect1_dropShadow" result="shape"/>
</filter>
</defs>
</svg>
