<svg width="53" height="37" viewBox="0 0 53 37" fill="none" xmlns="http://www.w3.org/2000/svg">
<path d="M4.27398 1.95241L23.003 16.6897C23.8502 17.3549 25.0261 17.6058 26.1577 17.5524C27.2963 17.6058 28.4626 17.2893 29.3195 16.6151L48.0485 1.96463C49.5429 0.779034 49.2071 0 47.301 0H5.02021C3.11669 0 2.77831 0.766811 4.27398 1.95241Z" fill="#FFFBEC"/>
<path d="M2.84402 5.66436C1.32005 4.5135 0 5.13428 0 7.03844V32.5317C0 33.0219 0.185913 33.4889 0.371183 33.9135L17.4964 16.7883L2.84402 5.66436Z" fill="#FFFBEC"/>
<path d="M49.3725 5.66436L35.0784 16.5245L51.9958 33.4613C52.0788 33.1641 52.1071 32.8527 52.1071 32.5311V7.03844C52.1071 5.13428 50.8939 4.5135 49.3725 5.66436Z" fill="#FFFBEC"/>
<path d="M28.9265 21.2031C28.161 21.7769 27.1581 22.0594 26.1661 22.0503C25.1626 22.0594 24.1597 21.7776 23.3942 21.2031L19.9139 18.5611L2.62207 35.8639C2.93986 35.9617 3.27695 36.0247 3.62497 36.0247H48.6957C49.211 36.0247 49.6986 35.8973 50.1393 35.6921L32.7548 18.3025L28.9265 21.2031Z" fill="#FFFBEC"/>
</svg>
