<svg width="44" height="44" viewBox="0 0 44 44" fill="none" xmlns="http://www.w3.org/2000/svg">
<path fill-rule="evenodd" clip-rule="evenodd" d="M21.6785 0C9.70581 0 0 9.70581 0 21.6785C0 33.6513 9.70581 43.3571 21.6785 43.3571C33.6513 43.3571 43.3571 33.6513 43.3571 21.6785C43.3571 9.70581 33.6513 0 21.6785 0ZM16.9118 10.1866C18.1451 10.1304 18.5392 10.1167 21.6792 10.1167H21.6756C24.8166 10.1167 25.2093 10.1304 26.4425 10.1866C27.6734 10.2429 28.5141 10.4378 29.2512 10.7237C30.0123 11.0188 30.6555 11.4138 31.2986 12.0569C31.9417 12.6996 32.3368 13.3447 32.633 14.1051C32.9173 14.8403 33.1124 15.6804 33.1702 16.9113C33.2256 18.1446 33.24 18.5387 33.24 21.6787C33.24 24.8188 33.2256 25.2119 33.1702 26.4451C33.1124 27.6755 32.9173 28.5159 32.633 29.2513C32.3368 30.0115 31.9417 30.6566 31.2986 31.2993C30.6562 31.9424 30.0121 32.3384 29.2519 32.6337C28.5162 32.9196 27.6751 33.1145 26.4442 33.1709C25.211 33.227 24.8181 33.2407 21.6778 33.2407C18.538 33.2407 18.1442 33.227 16.9109 33.1709C15.6802 33.1145 14.8398 32.9196 14.1042 32.6337C13.3442 32.3384 12.6992 31.9424 12.0568 31.2993C11.4139 30.6566 11.0188 30.0115 10.7233 29.2511C10.4376 28.5159 10.2427 27.6758 10.1861 26.4449C10.1302 25.2116 10.1163 24.8188 10.1163 21.6787C10.1163 18.5387 10.1307 18.1443 10.1859 16.9111C10.2413 15.6807 10.4364 14.8403 10.723 14.1049C11.0193 13.3447 11.4143 12.6996 12.0575 12.0569C12.7001 11.4141 13.3452 11.019 14.1056 10.7237C14.8408 10.4378 15.681 10.2429 16.9118 10.1866Z" fill="#FFFBEC"/>
<path fill-rule="evenodd" clip-rule="evenodd" d="M20.6422 12.1999C20.8436 12.1996 21.0602 12.1997 21.294 12.1998L21.6794 12.1999C24.7664 12.1999 25.1323 12.211 26.3514 12.2664C27.4787 12.3179 28.0905 12.5063 28.4981 12.6646C29.0376 12.8741 29.4223 13.1246 29.8267 13.5293C30.2314 13.934 30.4819 14.3194 30.692 14.8589C30.8502 15.266 31.0388 15.8778 31.0901 17.0051C31.1455 18.224 31.1576 18.5901 31.1576 21.6757C31.1576 24.7613 31.1455 25.1274 31.0901 26.3463C31.0386 27.4736 30.8502 28.0854 30.692 28.4925C30.4824 29.032 30.2314 29.4162 29.8267 29.8207C29.4221 30.2253 29.0379 30.4758 28.4981 30.6854C28.091 30.8444 27.4787 31.0323 26.3514 31.0838C25.1326 31.1392 24.7664 31.1513 21.6794 31.1513C18.5921 31.1513 18.2262 31.1392 17.0074 31.0838C15.8801 31.0318 15.2682 30.8434 14.8604 30.6852C14.3209 30.4756 13.9355 30.2251 13.5308 29.8204C13.1261 29.4157 12.8756 29.0313 12.6656 28.4915C12.5073 28.0844 12.3187 27.4726 12.2674 26.3453C12.212 25.1265 12.2009 24.7603 12.2009 21.6728C12.2009 18.5853 12.212 18.2211 12.2674 17.0022C12.319 15.8749 12.5073 15.2631 12.6656 14.8556C12.8751 14.316 13.1261 13.9306 13.5308 13.5259C13.9355 13.1213 14.3209 12.8707 14.8604 12.6607C15.268 12.5017 15.8801 12.3138 17.0074 12.2621C18.0739 12.2139 18.4873 12.1994 20.6422 12.197V12.1999ZM27.8506 14.1199C27.0846 14.1199 26.4632 14.7407 26.4632 15.5069C26.4632 16.2729 27.0846 16.8943 27.8506 16.8943C28.6166 16.8943 29.238 16.2729 29.238 15.5069C29.238 14.7409 28.6166 14.1195 27.8506 14.1195V14.1199ZM15.7421 21.6788C15.7421 18.3998 18.4005 15.7413 21.6794 15.7412C24.9585 15.7412 27.6163 18.3997 27.6163 21.6788C27.6163 24.9578 24.9587 27.6151 21.6797 27.6151C18.4006 27.6151 15.7421 24.9578 15.7421 21.6788Z" fill="#FFFBEC"/>
<path fill-rule="evenodd" clip-rule="evenodd" d="M21.6797 17.825C23.8081 17.825 25.5337 19.5503 25.5337 21.679C25.5337 23.8073 23.8081 25.533 21.6797 25.533C19.5511 25.533 17.8257 23.8073 17.8257 21.679C17.8257 19.5503 19.5511 17.825 21.6797 17.825V17.825Z" fill="#FFFBEC"/>
</svg>
